# xmcd
#
# Track frame offsets:
#	150
#	19737
#	44280
#	59082
#	79332
#	93630
#	117850
#	139977
#	155887
#	175482
#
# Disc length: 2560 seconds
#
# Revision: 3
# Processed by: cddbd v1.4PL0 Copyright (c) Steve Scherf et al.
# Submitted via: EasyCDDAExtractor 4.6.9.1
#
DISCID=9209fe0a
DTITLE=Peter Green - Guitar Hero
DYEAR=1984
DGENRE=Blues
TTITLE0=Dust My Broom
TTITLE1=One More Night Without You
TTITLE2=Crane's Train Boogie
TTITLE3=We're Going To Boogie
TTITLE4=Zulu Gone West
TTITLE5=Blowing All My Troubles Away
TTITLE6=Strangers Blues
TTITLE7=Sweet Sixteen
TTITLE8=Who's That Knocking
TTITLE9=The Case
EXTD=ID3G: 10\n(NB *This album formerly released as Katmandu]\nRecorded Januar
EXTD=y 1984\nPeter Green (Guitar]\nRay Dorset (Vocals]\nVince Crane (Keyboards
EXTD=]\nLee Surtees (Bass]\nJeff Whittaker (Percussion]\nGreg Terry-Short (Dru
EXTD=ms)
EXTT0=
EXTT1=
EXTT2=
EXTT3=
EXTT4=
EXTT5=
EXTT6=
EXTT7=
EXTT8=
EXTT9=
PLAYORDER=
